<?xml version="1.0" encoding="utf-8"?>
<!-- Svg Vector Icons : http://www.onlinewebfonts.com/icon -->
<!DOCTYPE svg PUBLIC "-//W3C//DTD SVG 1.1//EN" "http://www.w3.org/Graphics/SVG/1.1/DTD/svg11.dtd">
<svg version="1.1" xmlns="http://www.w3.org/2000/svg" xmlns:xlink="http://www.w3.org/1999/xlink" x="0px" y="0px" viewBox="0 0 1000 1000" enable-background="new 0 0 1000 1000" xml:space="preserve">
<metadata> Svg Vector Icons : http://www.onlinewebfonts.com/icon </metadata>
<g><path d="M308,543.2c8.9,0,16,8.6,16,19.3c0,10.7-7.1,19.3-16,19.3s-16-8.6-16-19.3C292,551.8,299.1,543.2,308,543.2z"/><path d="M687.4,543.2c8.9,0,16,8.6,16,19.3c0,10.7-7.1,19.3-16,19.3s-16-8.6-16-19.3C671.4,551.8,678.5,543.2,687.4,543.2z"/><path d="M917.2,438.7c-26.2,0-49.2,16.6-62.1,41.7c-43.6-95.2-134.5-183.3-246.8-219.6c-60.6-24.2-103.1-71-108.3-125.3c-5.3,54.5-47.7,101.1-108.3,125.3c-112.3,36.2-203.2,124.5-246.8,219.6c-12.8-25-35.7-41.7-62.1-41.7C42.6,438.7,10,478,10,526.6c0,48.6,32.6,87.9,72.8,87.9c12.2,0,23.7-3.6,33.9-10C120.2,762,290.4,864.3,500,864.6c209.6-0.3,379.8-102.6,383.3-260.1c10,6.4,21.7,10,33.9,10c40.2,0,72.8-39.4,72.8-87.9C990.2,478,957.6,438.7,917.2,438.7z M116,554.1c-3.5,12.7-18.6,18.1-33.9,12c-15.3-5.9-25-21.1-21.6-33.8s18.6-18.1,33.9-12C109.8,526.3,119.3,541.4,116,554.1z M500,820.7c-168.1-0.3-304.3-79.9-304.3-193.8c0-2.5,0.2-4.8,0.2-7.1c0-0.8,0-1.5,0.2-2.3c0.2-1.6,0.3-3.3,0.3-4.8c0.2-2.1,0.5-4.3,0.8-6.4c0-0.2,0-0.5,0.2-0.7c3.5-22.4,12-56.6,25.2-76.2c31.4-45.8,87.6-76.1,151.5-76.1c49.2,0,93.9,18.1,126.1,47.3c32.3-29.1,76.7-47.3,126.1-47.3c64,0,120,30.5,151.5,76.1c13.2,19.8,21.7,53.8,25.2,76.2c0,0.2,0,0.5,0.2,0.7c0.3,2.1,0.5,4.3,0.8,6.4c0.2,1.6,0.3,3.1,0.3,4.8c0,0.8,0.2,1.5,0.2,2.3c0.2,2.3,0.2,4.8,0.2,7.1C804.4,740.8,668.3,820.3,500,820.7z M918,566.1c-15.3,5.9-30.5,0.7-33.9-12c-3.5-12.7,6.3-27.8,21.6-33.8c15.3-5.9,30.5-0.7,33.9,12C942.9,544.9,933.4,560,918,566.1z"/></g>
</svg>